HIERARCHY
ROOT Hips
{
  OFFSET 0.000000 0.000000 0.000000
  CHANNELS 6 Xposition Yposition Zposition Zrotation Xrotation Yrotation
  JOINT Spine
  {
    OFFSET 0.000000 4.465170 -0.102243
    CHANNELS 3 Zrotation Xrotation Yrotation
    JOINT Spine1
    {
      OFFSET 0.000000 4.462120 -0.182402
      CHANNELS 3 Zrotation Xrotation Yrotation
      JOINT Spine2
      {
        OFFSET 0.000000 4.379370 -0.881002
        CHANNELS 3 Zrotation Xrotation Yrotation
        JOINT Spine3
        {
          OFFSET 0.000000 4.682860 0.214145
          CHANNELS 3 Zrotation Xrotation Yrotation
          JOINT Neck
          {
            OFFSET 0.000000 1.769640 0.824538
            CHANNELS 3 Zrotation Xrotation Yrotation
            JOINT Head
            {
              OFFSET 0.000000 1.696100 0.931451
              CHANNELS 3 Zrotation Xrotation Yrotation
            }
          }
          JOINT LeftShoulder
          {
            OFFSET 1.193810 -0.758808 -0.027676
            CHANNELS 3 Zrotation Xrotation Yrotation
            JOINT LeftArm
            {
              OFFSET 5.187790 -0.000017 0.000000
              CHANNELS 3 Zrotation Xrotation Yrotation
              JOINT LeftForeArm
              {
                OFFSET 12.736400 -0.000036 0.000016
                CHANNELS 3 Zrotation Xrotation Yrotation
                JOINT LeftHand
                {
                  OFFSET 9.214520 -0.000024 0.000012
                  CHANNELS 3 Zrotation Xrotation Yrotation
                }
              }
            }
          }
          JOINT RightShoulder
          {
            OFFSET -1.193810 -0.758806 -0.027672
            CHANNELS 3 Zrotation Xrotation Yrotation
            JOINT RightArm
            {
              OFFSET -5.187790 0.000013 0.000000
              CHANNELS 3 Zrotation Xrotation Yrotation
              JOINT RightForeArm
              {
                OFFSET -12.736400 0.000033 -0.000016
                CHANNELS 3 Zrotation Xrotation Yrotation
                JOINT RightHand
                {
                  OFFSET -9.214520 0.000024 -0.000011
                  CHANNELS 3 Zrotation Xrotation Yrotation
                }
              }
            }
          }
        }
      }
    }
  }
  JOINT LeftUpLeg
  {
    OFFSET 4.065250 -3.907320 0.417113
    CHANNELS 3 Zrotation Xrotation Yrotation
    JOINT LeftLeg
    {
      OFFSET 0.000225 -18.482100 0.003669
      CHANNELS 3 Zrotation Xrotation Yrotation
      JOINT LeftFoot
      {
        OFFSET -0.001724 -15.289800 -0.026295
        CHANNELS 3 Zrotation Xrotation Yrotation
        JOINT LeftToeBase
        {
          OFFSET 0.367432 -3.191310 5.542870
          CHANNELS 3 Zrotation Xrotation Yrotation
          JOINT LeftToe_End
          {
            OFFSET 0.087508 0.048489 1.367580
            CHANNELS 3 Zrotation Xrotation Yrotation
          }
        }
      }
    }
  }
  JOINT RightUpLeg
  {
    OFFSET -4.065260 -3.907310 0.417124
    CHANNELS 3 Zrotation Xrotation Yrotation
    JOINT RightLeg
    {
      OFFSET -0.000294 -18.482100 0.004403
      CHANNELS 3 Zrotation Xrotation Yrotation
      JOINT RightFoot
      {
        OFFSET 0.001597 -15.289800 -0.025693
        CHANNELS 3 Zrotation Xrotation Yrotation
        JOINT RightToeBase
        {
          OFFSET -0.354204 -3.191090 5.543860
          CHANNELS 3 Zrotation Xrotation Yrotation
          JOINT RightToe_End
          {
            OFFSET -0.084240 0.048543 1.367780
            CHANNELS 3 Zrotation Xrotation Yrotation
          }
        }
      }
    }
  }
}
MOTION
Frames: 11
Frame Time:	0.033333
-0.383532 41.570301 -3.076530 -0.544219 2.100287 -5.303123 1.849205 -1.931977 0.311238 0.413434 1.489422 0.240841 -0.062553 2.389379 0.268170 -1.105535 6.447478 0.514998 0.436724 -4.891224 -5.047506 -1.953737 -21.256077 -5.271419 -7.471002 2.370911 -4.400712 -63.026176 24.954611 -4.130842 0.000000 0.000000 -20.375296 -0.654343 -14.308755 -2.123914 7.017449 2.627237 6.331441 62.182274 18.992701 6.323942 -0.000000 0.000000 20.301096 13.198421 17.034693 -6.046100 1.683318 1.098815 -2.081180 0.001180 13.876007 0.005441 0.676259 -15.808591 9.951106 -0.000000 0.000000 -0.000000 -0.000000 0.000000 -0.000000 -0.358684 -2.127008 -8.439816 -0.003881 16.213671 0.011455 -1.664258 -15.673656 6.783925 -0.000000 0.000000 -0.000000 -0.000000 0.000000 -0.000000
-0.570095 41.534801 -2.967340 -0.395369 2.407023 -5.457391 1.691868 -1.928783 0.220741 0.387530 1.522177 0.184284 -0.035910 2.469213 0.211770 -0.966632 6.645878 0.406948 0.515895 -5.531655 -5.148816 -2.010315 -21.851862 -5.384148 -7.118125 2.406092 -4.785523 -62.959999 25.237492 -4.016304 0.000000 0.000000 -20.371801 -2.499852 -12.429407 -1.994095 6.949016 2.574533 6.285925 62.060921 18.000671 6.245975 -0.000000 0.000000 20.820202 9.964256 12.848786 -3.867669 1.836887 0.904735 -1.895094 0.001172 14.054368 0.005441 0.376691 -16.061386 9.876040 -0.000000 0.000000 -0.000000 -0.000000 0.000000 -0.000000 -0.158427 -2.625119 -7.749259 -0.004026 16.969978 0.011509 -2.007197 -16.293497 6.189257 -0.000000 0.000000 -0.000000 -0.000000 0.000000 -0.000000
-0.754702 41.496201 -2.852600 -0.276738 2.633328 -5.556617 1.567343 -1.900956 0.130471 0.376410 1.573198 0.128626 0.003036 2.573560 0.158209 -0.808906 6.893380 0.301933 0.503090 -6.148559 -5.252617 -2.067354 -22.417397 -5.509434 -6.871150 2.434793 -5.205292 -62.833511 25.328575 -4.032498 0.000000 0.000000 -20.260189 -4.452122 -10.345155 -1.851395 6.808040 2.525957 6.286989 61.951488 17.244305 6.187830 -0.000000 0.000000 21.439449 6.723010 8.204919 -2.309621 2.008245 0.763123 -1.756976 0.001160 14.315006 0.005441 0.079418 -16.349012 9.784987 -0.000000 0.000000 -0.000000 -0.000000 0.000000 -0.000000 0.062142 -2.983670 -7.171657 -0.004164 17.663887 0.011563 -2.345540 -16.894787 5.657938 -0.000000 0.000000 -0.000000 -0.000000 0.000000 -0.000000
-0.932992 41.450100 -2.724699 -0.238983 2.683952 -5.533346 1.533355 -1.778787 0.047758 0.397250 1.660085 0.079793 0.060556 2.697146 0.115136 -0.643351 7.149919 0.213053 0.330556 -6.624069 -5.370517 -2.084043 -22.910574 -5.658842 -6.773119 2.472713 -5.699696 -62.683567 25.000582 -4.239638 0.000000 0.000000 -19.938986 -6.453726 -7.951238 -1.683452 6.538082 2.452023 6.310419 61.900589 16.842813 6.127972 -0.000000 0.000000 21.995907 4.127507 4.157285 -1.631687 2.237370 0.715974 -1.688514 0.001078 14.801679 0.005449 -0.230982 -16.758804 9.613585 -0.000000 0.000000 -0.000000 -0.000000 0.000000 -0.000000 0.299681 -3.060535 -6.992069 -0.004286 18.282225 0.011554 -2.634244 -17.509489 5.417450 -0.000000 0.000000 -0.000000 -0.000000 0.000000 -0.000000
-1.100302 41.378101 -2.575228 -0.325965 2.537610 -5.347843 1.646213 -1.545024 0.000195 0.459084 1.784310 0.055710 0.126629 2.830239 0.100599 -0.522010 7.384977 0.175292 0.073740 -6.905987 -5.520346 -2.024367 -23.261490 -5.837348 -6.763901 2.538783 -6.273875 -62.587475 24.065762 -4.736027 0.000000 0.000000 -19.403898 -7.966975 -5.969112 -1.257766 6.260746 2.347700 6.269103 61.779194 16.866678 6.180973 -0.000000 0.000000 22.140976 3.343644 2.050300 -1.819810 2.524888 0.594283 -1.922410 0.000956 15.973527 0.005518 -0.499587 -17.600294 9.562639 -0.000000 0.000000 -0.000000 -0.000000 0.000000 -0.000000 0.544477 -2.930768 -7.407214 -0.004502 19.102991 0.011630 -2.843667 -18.325375 5.612486 -0.000000 0.000000 -0.000000 -0.000000 0.000000 -0.000000
-1.251029 41.308403 -2.400662 -0.578619 2.273268 -5.019451 1.941573 -1.251793 0.044764 0.557506 1.930233 0.090427 0.174211 2.974333 0.145969 -0.529103 7.625548 0.251357 -0.026491 -7.078619 -5.738057 -2.054174 -23.428387 -6.077146 -6.677413 2.579876 -6.850264 -62.536884 23.010429 -5.668894 0.000000 0.000000 -18.783279 -8.051640 -5.756770 -0.571560 6.215269 2.292972 6.070572 61.375988 17.160007 6.414711 -0.000000 0.000000 21.967491 4.301275 1.409798 -2.540353 2.960973 -0.447920 -2.534133 0.000656 19.474455 0.005615 -1.782777 -19.280066 9.484877 -0.000000 0.000000 -0.000000 -0.000000 0.000000 -0.000000 0.923461 -2.402861 -8.106362 -0.004547 19.485773 0.011657 -3.003408 -18.969175 5.962332 -0.000000 0.000000 -0.000000 -0.000000 0.000000 -0.000000
-1.397070 41.267101 -2.193130 -0.708364 1.948185 -4.663343 2.163781 -0.950833 0.160242 0.629608 2.075368 0.162853 0.205182 3.109910 0.225446 -0.521184 7.838951 0.391271 0.115207 -7.195259 -6.036817 -2.254127 -23.424709 -6.392421 -6.651869 2.623669 -7.348319 -62.550911 21.943102 -6.722456 0.000000 0.000000 -18.194044 -6.890843 -6.985960 0.139339 6.204451 2.269403 5.869433 60.947598 17.583399 6.673157 -0.000000 0.000000 21.622511 5.723736 1.270408 -3.337040 3.130486 -2.711333 -3.110007 -0.000034 25.416693 0.005833 -2.392450 -20.279877 9.537328 -0.000000 0.000000 -0.000000 -0.000000 0.000000 -0.000000 1.177186 -1.524667 -8.917991 -0.004527 19.320482 0.011646 -3.108936 -19.363602 6.411523 -0.000000 0.000000 -0.000000 -0.000000 0.000000 -0.000000
-1.532931 41.256699 -1.950447 -0.755936 1.662238 -4.279530 2.340431 -0.686279 0.350226 0.681534 2.203317 0.275590 0.210667 3.230291 0.341767 -0.546631 8.026878 0.601869 0.294932 -7.204480 -6.354209 -2.406674 -23.299305 -6.716695 -6.604383 2.627718 -7.648759 -62.630169 21.077791 -7.893214 0.000000 0.000000 -17.833485 -5.649266 -8.746875 0.360628 6.283813 2.300425 5.712025 60.522991 18.006102 6.924546 -0.000000 0.000000 21.123287 6.949321 1.067632 -3.995444 3.175945 -6.563943 -3.361662 0.000034 34.147270 0.013927 -3.940080 -19.949062 9.230534 -0.000000 0.000000 -0.000000 -0.000000 0.000000 -0.000000 1.433663 -0.371111 -9.394913 -0.004372 18.511284 0.011579 -3.221104 -19.415987 6.507364 -0.000000 0.000000 -0.000000 -0.000000 0.000000 -0.000000
-1.657622 41.254700 -1.658493 -0.657409 1.436459 -4.000483 2.409425 -0.534476 0.586126 0.709491 2.292511 0.408884 0.206308 3.340538 0.476211 -0.539396 8.239222 0.845373 0.289314 -7.087363 -6.619405 -2.256101 -23.131796 -6.971901 -6.634165 2.616467 -7.782003 -62.797386 20.432898 -8.825447 0.000000 0.000000 -17.935997 -4.419412 -10.862049 0.016006 6.259410 2.325861 5.744886 60.262600 18.313118 7.122099 -0.000000 0.000000 20.570095 7.920976 0.809816 -4.573220 3.155488 -10.228659 -3.609125 0.000017 41.785065 0.033582 -7.370967 -18.567513 8.969654 -0.000000 0.000000 -0.000000 -0.000000 0.000000 -0.000000 1.540394 0.833554 -9.727098 -0.004151 17.550470 0.011555 -3.283734 -19.421253 6.567776 -0.000000 0.000000 -0.000000 -0.000000 0.000000 -0.000000
-1.772440 41.257500 -1.296140 -0.465553 1.304398 -3.987494 2.438560 -0.543129 0.867580 0.735188 2.327937 0.565270 0.211022 3.439468 0.633966 -0.471523 8.491916 1.128271 -0.045124 -6.873747 -6.806271 -1.839984 -22.924711 -7.150156 -6.881947 2.627715 -7.721314 -63.002106 20.046795 -9.382591 0.000000 0.000000 -18.545097 -3.260728 -12.756907 -0.541798 6.025479 2.320425 5.936251 60.222187 18.430519 7.230108 -0.000000 0.000000 20.215097 8.745499 0.759244 -5.246893 2.994711 -13.339032 -3.301741 0.000132 47.337719 0.054900 -10.035477 -17.707876 10.140112 -0.000000 0.000000 -0.000000 -0.000000 0.000000 -0.000000 1.525069 2.131799 -10.035226 -0.003153 16.339838 0.008702 -3.254859 -19.353462 6.876629 -0.000000 0.000000 -0.000000 -0.000000 0.000000 -0.000000
-1.880821 41.260101 -0.854053 -0.248133 1.288540 -4.256654 2.483106 -0.599783 1.144379 0.774599 2.321574 0.720382 0.249774 3.470645 0.792701 -0.296372 8.593884 1.407074 -0.765132 -6.541610 -6.883554 -1.233804 -22.659832 -7.235134 -7.449538 2.698861 -7.358978 -63.305923 19.775593 -9.407152 0.000000 0.000000 -19.538673 -2.503803 -13.592501 -1.313675 5.506710 2.288049 6.182984 60.443398 18.553988 7.173926 -0.000000 0.000000 20.191093 9.150659 0.916003 -5.826819 2.724145 -16.149410 -2.107619 0.000159 50.746994 0.059567 -8.324159 -17.987213 12.619334 -0.000000 0.000000 -0.000000 -0.000000 0.000000 -0.000000 1.465724 3.574816 -10.329597 -0.000934 14.752439 0.000985 -3.126767 -19.174093 7.449162 -0.000000 0.000000 -0.000000 -0.000000 0.000000 -0.000000
